<svg xmlns="http://www.w3.org/2000/svg" xmlns:xlink="http://www.w3.org/1999/xlink" xmlns:lucid="lucid" width="1299" height="778"><g transform="translate(-1 -140)" lucid:page-tab-id="0_0"><path d="M0 0h1760v1360H0z" fill="#fff"/><path d="M560 345c0-2.76 2.24-5 5-5h150c2.76 0 5 2.24 5 5v110c0 2.76-2.24 5-5 5H565c-2.76 0-5-2.24-5-5z" fill="#fff"/><path d="M574.62 340h3.84m7.7 0H590m7.7 0h3.84m7.7 0h3.84m7.7 0h3.84m7.7 0h3.83m7.7 0h3.84m7.68 0h3.85m7.7 0h3.84m7.7 0h3.84m7.7 0h3.85m7.7 0h3.83m7.7 0H715l2.95.96 1.8 2.46.25 1.58v2.04m0 8.15v4.06m0 8.15v4.08m0 8.15v4.07m0 8.15v4.08m0 8.14v4.08m0 8.15v4.07m0 8.15v4.07m0 8.14v4.07m0 8.16V455l-.96 2.95-2.46 1.8-1.58.25h-1.92m-7.7 0h-3.84m-7.7 0H690m-7.7 0h-3.84m-7.7 0h-3.84m-7.7 0h-3.84m-7.7 0h-3.83m-7.7 0h-3.84m-7.68 0h-3.85m-7.7 0h-3.84m-7.7 0h-3.84m-7.7 0h-3.85m-7.7 0h-3.83m-7.7 0H565l-2.95-.96-1.8-2.46L560 455v-2.04m0-8.15v-4.06m0-8.15v-4.08m0-8.15v-4.07m0-8.15v-4.08m0-8.14v-4.08m0-8.15v-4.07m0-8.15v-4.07m0-8.14v-4.07m0-8.16V345l.96-2.95 2.46-1.8L565 340h1.92" stroke="#000" stroke-width="2" fill="none"/><use xlink:href="#a" transform="matrix(1,0,0,1,565,345) translate(19.599999999999994 58.6)"/><use xlink:href="#b" transform="matrix(1,0,0,1,565,345) translate(91.5 58.6)"/><path d="M560 165c0-2.76 2.24-5 5-5h150c2.76 0 5 2.24 5 5v110c0 2.76-2.24 5-5 5H565c-2.76 0-5-2.24-5-5z" fill="#fff"/><path d="M574.62 160h3.84m7.7 0H590m7.7 0h3.84m7.7 0h3.84m7.7 0h3.84m7.7 0h3.83m7.7 0h3.84m7.68 0h3.85m7.7 0h3.84m7.7 0h3.84m7.7 0h3.85m7.7 0h3.83m7.7 0H715l2.95.96 1.8 2.46.25 1.58v2.04m0 8.15v4.06m0 8.15v4.08m0 8.15v4.07m0 8.15v4.08m0 8.14v4.08m0 8.15v4.07m0 8.15v4.07m0 8.14v4.07m0 8.16V275l-.96 2.95-2.46 1.8-1.58.25h-1.92m-7.7 0h-3.84m-7.7 0H690m-7.7 0h-3.84m-7.7 0h-3.84m-7.7 0h-3.84m-7.7 0h-3.83m-7.7 0h-3.84m-7.68 0h-3.85m-7.7 0h-3.84m-7.7 0h-3.84m-7.7 0h-3.85m-7.7 0h-3.83m-7.7 0H565l-2.95-.96-1.8-2.46L560 275v-2.04m0-8.15v-4.06m0-8.15v-4.08m0-8.15v-4.07m0-8.15v-4.08m0-8.14v-4.08m0-8.15v-4.07m0-8.15v-4.07m0-8.14v-4.07m0-8.16V165l.96-2.95 2.46-1.8L565 160h1.92" stroke="#000" stroke-width="2" fill="none"/><use xlink:href="#c" transform="matrix(1,0,0,1,565,165) translate(14.099999999999994 58.6)"/><path d="M641 338h-2v-1.87h2zm0-9.33h-2v-3.74h2zm0-33.6h-2v-3.74h2zm0-11.2h-2V282h2z"/><path d="M641 339h-2v-1.03h2zM641 282.03h-2V281h2z"/><use xlink:href="#d" transform="matrix(1,0,0,1,560,295.8666666666667) translate(0 14.4)"/><use xlink:href="#e" transform="matrix(1,0,0,1,560,295.8666666666667) translate(78 14.4)"/><use xlink:href="#f" transform="matrix(1,0,0,1,560,295.8666666666667) translate(102 14.4)"/><path d="M460 705c0-2.76 2.24-5 5-5h150c2.76 0 5 2.24 5 5v110c0 2.76-2.24 5-5 5H465c-2.76 0-5-2.24-5-5z" fill="#fff"/><path d="M474.62 700h3.84m7.7 0H490m7.7 0h3.84m7.7 0h3.84m7.7 0h3.84m7.7 0h3.83m7.7 0h3.84m7.68 0h3.85m7.7 0h3.84m7.7 0h3.84m7.7 0h3.85m7.7 0h3.83m7.7 0H615l2.95.96 1.8 2.46.25 1.58v2.04m0 8.15v4.06m0 8.15v4.08m0 8.15v4.07m0 8.15v4.08m0 8.14v4.08m0 8.15v4.07m0 8.15v4.07m0 8.14v4.07m0 8.16V815l-.96 2.95-2.46 1.8-1.58.25h-1.92m-7.7 0h-3.84m-7.7 0H590m-7.7 0h-3.84m-7.7 0h-3.84m-7.7 0h-3.84m-7.7 0h-3.83m-7.7 0h-3.84m-7.68 0h-3.85m-7.7 0h-3.84m-7.7 0h-3.84m-7.7 0h-3.85m-7.7 0h-3.83m-7.7 0H465l-2.95-.96-1.8-2.46L460 815v-2.04m0-8.15v-4.06m0-8.15v-4.08m0-8.15v-4.07m0-8.15v-4.08m0-8.14v-4.08m0-8.15v-4.07m0-8.15v-4.07m0-8.14v-4.07m0-8.16V705l.96-2.95 2.46-1.8L465 700h1.92" stroke="#000" stroke-width="2" fill="none"/><use xlink:href="#g" transform="matrix(1,0,0,1,465,705) translate(54.125 58.6)"/><path d="M320 545c0-2.76 2.24-5 5-5h150c2.76 0 5 2.24 5 5v110c0 2.76-2.24 5-5 5H325c-2.76 0-5-2.24-5-5z" fill="#fff"/><path d="M334.62 540h3.84m7.7 0H350m7.7 0h3.84m7.7 0h3.84m7.7 0h3.84m7.7 0h3.83m7.7 0h3.84m7.68 0h3.85m7.7 0h3.84m7.7 0h3.84m7.7 0h3.85m7.7 0h3.83m7.7 0H475l2.95.96 1.8 2.46.25 1.58v2.04m0 8.15v4.06m0 8.15v4.08m0 8.15v4.07m0 8.15v4.08m0 8.14v4.08m0 8.15v4.07m0 8.15v4.07m0 8.14v4.07m0 8.16V655l-.96 2.95-2.46 1.8-1.58.25h-1.92m-7.7 0h-3.84m-7.7 0H450m-7.7 0h-3.84m-7.7 0h-3.84m-7.7 0h-3.84m-7.7 0h-3.83m-7.7 0h-3.84m-7.68 0h-3.85m-7.7 0h-3.84m-7.7 0h-3.84m-7.7 0h-3.85m-7.7 0h-3.83m-7.7 0H325l-2.95-.96-1.8-2.46L320 655v-2.04m0-8.15v-4.06m0-8.15v-4.08m0-8.15v-4.07m0-8.15v-4.08m0-8.14v-4.08m0-8.15v-4.07m0-8.15v-4.07m0-8.14v-4.07m0-8.16V545l.96-2.95 2.46-1.8L325 540h1.92" stroke="#000" stroke-width="2" fill="none"/><use xlink:href="#h" transform="matrix(1,0,0,1,325,545) translate(1.5749999999999886 58.6)"/><use xlink:href="#i" transform="matrix(1,0,0,1,325,545) translate(103.475 58.6)"/><path d="M800 545c0-2.76 2.24-5 5-5h150c2.76 0 5 2.24 5 5v110c0 2.76-2.24 5-5 5H805c-2.76 0-5-2.24-5-5z" fill="#fff"/><path d="M814.62 540h3.84m7.7 0H830m7.7 0h3.84m7.7 0h3.84m7.7 0h3.84m7.7 0h3.83m7.7 0h3.84m7.68 0h3.85m7.7 0h3.84m7.7 0h3.84m7.7 0h3.85m7.7 0h3.83m7.7 0H955l2.95.96 1.8 2.46.25 1.58v2.04m0 8.15v4.06m0 8.15v4.08m0 8.15v4.07m0 8.15v4.08m0 8.14v4.08m0 8.15v4.07m0 8.15v4.07m0 8.14v4.07m0 8.16V655l-.96 2.95-2.46 1.8-1.58.25h-1.92m-7.7 0h-3.84m-7.7 0H930m-7.7 0h-3.84m-7.7 0h-3.84m-7.7 0h-3.84m-7.7 0h-3.83m-7.7 0h-3.84m-7.68 0h-3.85m-7.7 0h-3.84m-7.7 0h-3.84m-7.7 0h-3.85m-7.7 0h-3.83m-7.7 0H805l-2.95-.96-1.8-2.46L800 655v-2.04m0-8.15v-4.06m0-8.15v-4.08m0-8.15v-4.07m0-8.15v-4.08m0-8.14v-4.08m0-8.15v-4.07m0-8.15v-4.07m0-8.14v-4.07m0-8.16V545l.96-2.95 2.46-1.8L805 540h1.92" stroke="#000" stroke-width="2" fill="none"/><use xlink:href="#j" transform="matrix(1,0,0,1,805,545) translate(15.574999999999996 58.6)"/><use xlink:href="#k" transform="matrix(1,0,0,1,805,545) translate(66.475 58.6)"/><path d="M880 345c0-2.76 2.24-5 5-5h150c2.76 0 5 2.24 5 5v110c0 2.76-2.24 5-5 5H885c-2.76 0-5-2.24-5-5z" fill="#fff"/><path d="M894.62 340h3.84m7.7 0H910m7.7 0h3.84m7.7 0h3.84m7.7 0h3.84m7.7 0h3.83m7.7 0h3.84m7.68 0h3.85m7.7 0h3.84m7.7 0h3.84m7.7 0h3.85m7.7 0h3.83m7.7 0h1.92l2.95.96 1.8 2.46.25 1.58v2.04m0 8.15v4.06m0 8.15v4.08m0 8.15v4.07m0 8.15v4.08m0 8.14v4.08m0 8.15v4.07m0 8.15v4.07m0 8.14v4.07m0 8.16V455l-.96 2.95-2.46 1.8-1.58.25h-1.92m-7.7 0h-3.84m-7.7 0H1010m-7.7 0h-3.84m-7.7 0h-3.84m-7.7 0h-3.84m-7.7 0h-3.83m-7.7 0h-3.84m-7.68 0h-3.85m-7.7 0h-3.84m-7.7 0h-3.84m-7.7 0h-3.85m-7.7 0h-3.83m-7.7 0H885l-2.95-.96-1.8-2.46L880 455v-2.04m0-8.15v-4.06m0-8.15v-4.08m0-8.15v-4.07m0-8.15v-4.08m0-8.14v-4.08m0-8.15v-4.07m0-8.15v-4.07m0-8.14v-4.07m0-8.16V345l.96-2.95 2.46-1.8L885 340h1.92" stroke="#000" stroke-width="2" fill="none"/><use xlink:href="#l" transform="matrix(1,0,0,1,885,345) translate(26.574999999999996 58.6)"/><use xlink:href="#m" transform="matrix(1,0,0,1,885,345) translate(69.525 58.6)"/><path d="M403.12 538.26l-1.74 1.07-1.05-1.7 1.75-1.08zm10.5-6.45l-3.5 2.16-1.05-1.7 3.5-2.15zm10.48-6.43l-3.5 2.15-1.05-1.7 3.5-2.15zm10.48-6.44l-3.5 2.15-1.04-1.7 3.5-2.15zm10.5-6.44l-3.5 2.14-1.05-1.7 3.5-2.15zm10.48-6.45l-3.5 2.15-1.05-1.7 3.5-2.16zm7-4.3l-.5-.78h1.77zm34.38-22.38h-1.77l1.28-.8zm11.05-5.53l-3.5 2.15-1.06-1.72 3.5-2.14zm10.47-6.44l-3.5 2.15-1.04-1.7 3.5-2.15zm10.5-6.44l-3.5 2.15-1.05-1.7 3.5-2.14zm10.48-6.44l-3.5 2.15-1.05-1.7 3.5-2.16zm10.48-6.44l-3.5 2.14-1.04-1.7 3.5-2.15zm8.74-5.37l-1.75 1.08-1.04-1.7 1.74-1.08z"/><path d="M401.2 539h-3.1l2.25-1.4zM559 442.5l-.35.22-1.05-1.7 1.4-.86z"/><use xlink:href="#n" transform="matrix(1,0,0,1,441,479.3666666666666) translate(0 14.4)"/><path d="M879.67 537.62l-1.05 1.7-1.74-1.06 1.04-1.7zm-8.74-5.36l-1.04 1.7-3.5-2.15 1.04-1.7zm-10.48-6.44l-1.05 1.7-3.5-2.15 1.05-1.7zm-11.54-4.74l-1.9-1.18h2.64zm-33.25-22.78h-.9l.26-.4zm-7.64-4.7l-1.03 1.7-3.5-2.13 1.05-1.7zm-10.47-6.43l-1.05 1.7-3.5-2.15 1.05-1.7zm-10.5-6.44l-1.04 1.7-3.5-2.15 1.05-1.7zm-10.47-6.45l-1.05 1.7-3.5-2.14 1.06-1.7zm-10.5-6.44l-1.04 1.7-3.5-2.14 1.05-1.7zm-10.48-6.44l-1.04 1.7-3.5-2.14 1.05-1.7zm-10.48-6.44l-1.05 1.7-3.5-2.14 1.05-1.7zm-10.5-6.44l-1.04 1.7-3.5-2.14 1.05-1.7zm-10.48-6.44l-1.04 1.7-1.75-1.07 1.05-1.7z"/><path d="M881.9 539h-3.1l.85-1.4zM722.4 441.02l-1.05 1.7-.35-.2v-2.36z"/><use xlink:href="#o" transform="matrix(1,0,0,1,792.824014449004,498.3004952485496) translate(0 14.4)"/><path d="M878 401h-2v-2h2zm-82 0h-4v-2h4zm-12 0h-4v-2h4zm-12 0h-4v-2h4zm-12 0h-4v-2h4zm-12 0h-4v-2h4zm-12 0h-4v-2h4zm-12 0h-2v-2h2zm144 0h-2v-2h2z"/><path d="M879 401h-1.03v-2H879zM722.03 401H721v-2h1.03z"/><use xlink:href="#p" transform="matrix(1,0,0,1,798,389.2) translate(0 14.4)"/><path d="M100 305c0-2.76 2.24-5 5-5h150c2.76 0 5 2.24 5 5v110c0 2.76-2.24 5-5 5H105c-2.76 0-5-2.24-5-5z" fill="#fff"/><path d="M114.62 300h3.84m7.7 0H130m7.7 0h3.84m7.7 0h3.84m7.7 0h3.84m7.7 0h3.83m7.7 0h3.84m7.68 0h3.85m7.7 0h3.84m7.7 0h3.84m7.7 0h3.85m7.7 0h3.83m7.7 0H255l2.95.96 1.8 2.46.25 1.58v2.04m0 8.15v4.06m0 8.15v4.08m0 8.15v4.07m0 8.15v4.08m0 8.14v4.08m0 8.15v4.07m0 8.15v4.07m0 8.14v4.07m0 8.16V415l-.96 2.95-2.46 1.8-1.58.25h-1.92m-7.7 0h-3.84m-7.7 0H230m-7.7 0h-3.84m-7.7 0h-3.84m-7.7 0h-3.84m-7.7 0h-3.83m-7.7 0h-3.84m-7.68 0h-3.85m-7.7 0h-3.84m-7.7 0h-3.84m-7.7 0h-3.85m-7.7 0h-3.83m-7.7 0H105l-2.95-.96-1.8-2.46L100 415v-2.04m0-8.15v-4.06m0-8.15v-4.08m0-8.15v-4.07m0-8.15v-4.08m0-8.14v-4.08m0-8.15v-4.07m0-8.15v-4.07m0-8.14v-4.07m0-8.16V305l.96-2.95 2.46-1.8L105 300h1.92" stroke="#000" stroke-width="2" fill="none"/><path d="M180 325c0-2.76 2.24-5 5-5h150c2.76 0 5 2.24 5 5v110c0 2.76-2.24 5-5 5H185c-2.76 0-5-2.24-5-5z" fill="#fff"/><path d="M194.62 320h3.84m7.7 0H210m7.7 0h3.84m7.7 0h3.84m7.7 0h3.84m7.7 0h3.83m7.7 0h3.84m7.68 0h3.85m7.7 0h3.84m7.7 0h3.84m7.7 0h3.85m7.7 0h3.83m7.7 0H335l2.95.96 1.8 2.46.25 1.58v2.04m0 8.15v4.06m0 8.15v4.08m0 8.15v4.07m0 8.15v4.08m0 8.14v4.08m0 8.15v4.07m0 8.15v4.07m0 8.14v4.07m0 8.16V435l-.96 2.95-2.46 1.8-1.58.25h-1.92m-7.7 0h-3.84m-7.7 0H310m-7.7 0h-3.84m-7.7 0h-3.84m-7.7 0h-3.84m-7.7 0h-3.83m-7.7 0h-3.84m-7.68 0h-3.85m-7.7 0h-3.84m-7.7 0h-3.84m-7.7 0h-3.85m-7.7 0h-3.83m-7.7 0H185l-2.95-.96-1.8-2.46L180 435v-2.04m0-8.15v-4.06m0-8.15v-4.08m0-8.15v-4.07m0-8.15v-4.08m0-8.14v-4.08m0-8.15v-4.07m0-8.15v-4.07m0-8.14v-4.07m0-8.16V325l.96-2.95 2.46-1.8L185 320h1.92" stroke="#000" stroke-width="2" fill="none"/><path d="M260 345c0-2.76 2.24-5 5-5h150c2.76 0 5 2.24 5 5v110c0 2.76-2.24 5-5 5H265c-2.76 0-5-2.24-5-5z" fill="#fff"/><path d="M274.62 340h3.84m7.7 0H290m7.7 0h3.84m7.7 0h3.84m7.7 0h3.84m7.7 0h3.83m7.7 0h3.84m7.68 0h3.85m7.7 0h3.84m7.7 0h3.84m7.7 0h3.85m7.7 0h3.83m7.7 0H415l2.95.96 1.8 2.46.25 1.58v2.04m0 8.15v4.06m0 8.15v4.08m0 8.15v4.07m0 8.15v4.08m0 8.14v4.08m0 8.15v4.07m0 8.15v4.07m0 8.14v4.07m0 8.16V455l-.96 2.95-2.46 1.8-1.58.25h-1.92m-7.7 0h-3.84m-7.7 0H390m-7.7 0h-3.84m-7.7 0h-3.84m-7.7 0h-3.84m-7.7 0h-3.83m-7.7 0h-3.84m-7.68 0h-3.85m-7.7 0h-3.84m-7.7 0h-3.84m-7.7 0h-3.85m-7.7 0h-3.83m-7.7 0H265l-2.95-.96-1.8-2.46L260 455v-2.04m0-8.15v-4.06m0-8.15v-4.08m0-8.15v-4.07m0-8.15v-4.08m0-8.14v-4.08m0-8.15v-4.07m0-8.15v-4.07m0-8.14v-4.07m0-8.16V345l.96-2.95 2.46-1.8L265 340h1.92" stroke="#000" stroke-width="2" fill="none"/><use xlink:href="#a" transform="matrix(1,0,0,1,265,345) translate(2.625 47.8)"/><use xlink:href="#q" transform="matrix(1,0,0,1,265,345) translate(74.525 47.8)"/><use xlink:href="#r" transform="matrix(1,0,0,1,265,345) translate(21.599999999999994 69.4)"/><use xlink:href="#s" transform="matrix(1,0,0,1,265,345) translate(56.599999999999994 69.4)"/><path d="M960 743c0-2.76 2.24-5 5-5h150c2.76 0 5 2.24 5 5v110c0 2.76-2.24 5-5 5H965c-2.76 0-5-2.24-5-5z" fill="#fff"/><path d="M974.62 738h3.84m7.7 0H990m7.7 0h3.84m7.7 0h3.84m7.7 0h3.84m7.7 0h3.83m7.7 0h3.84m7.68 0h3.85m7.7 0h3.84m7.7 0h3.84m7.7 0h3.85m7.7 0h3.83m7.7 0h1.92l2.95.96 1.8 2.46.25 1.58v2.04m0 8.15v4.06m0 8.15v4.08m0 8.15v4.07m0 8.15v4.08m0 8.14v4.08m0 8.15v4.07m0 8.15v4.07m0 8.14v4.07m0 8.16V853l-.96 2.95-2.46 1.8-1.58.25h-1.92m-7.7 0h-3.84m-7.7 0H1090m-7.7 0h-3.84m-7.7 0h-3.84m-7.7 0h-3.84m-7.7 0h-3.83m-7.7 0h-3.84m-7.68 0h-3.85m-7.7 0h-3.84m-7.7 0h-3.84m-7.7 0h-3.85m-7.7 0h-3.83m-7.7 0H965l-2.95-.96-1.8-2.46L960 853v-2.04m0-8.15v-4.06m0-8.15v-4.08m0-8.15v-4.07m0-8.15v-4.08m0-8.14v-4.08m0-8.15v-4.07m0-8.15v-4.07m0-8.14v-4.07m0-8.16V743l.96-2.95 2.46-1.8L965 738h1.92" stroke="#000" stroke-width="2" fill="none"/><path d="M1040 763c0-2.76 2.24-5 5-5h150c2.76 0 5 2.24 5 5v110c0 2.76-2.24 5-5 5h-150c-2.76 0-5-2.24-5-5z" fill="#fff"/><path d="M1054.62 758h3.84m7.7 0h3.84m7.7 0h3.84m7.7 0h3.84m7.7 0h3.84m7.7 0h3.83m7.7 0h3.84m7.68 0h3.85m7.7 0h3.84m7.7 0h3.84m7.7 0h3.85m7.7 0h3.83m7.7 0h1.92l2.95.96 1.8 2.46.25 1.58v2.04m0 8.15v4.06m0 8.15v4.08m0 8.15v4.07m0 8.15v4.08m0 8.14v4.08m0 8.15v4.07m0 8.15v4.07m0 8.14v4.07m0 8.16V873l-.96 2.95-2.46 1.8-1.58.25h-1.92m-7.7 0h-3.84m-7.7 0H1170m-7.7 0h-3.84m-7.7 0h-3.84m-7.7 0h-3.84m-7.7 0h-3.83m-7.7 0h-3.84m-7.68 0h-3.85m-7.7 0h-3.84m-7.7 0h-3.84m-7.7 0h-3.85m-7.7 0h-3.83m-7.7 0H1045l-2.95-.96-1.8-2.46-.25-1.58v-2.04m0-8.15v-4.06m0-8.15v-4.08m0-8.15v-4.07m0-8.15v-4.08m0-8.14v-4.08m0-8.15v-4.07m0-8.15v-4.07m0-8.14v-4.07m0-8.16V763l.96-2.95 2.46-1.8 1.58-.25h1.92" stroke="#000" stroke-width="2" fill="none"/><path d="M1120 783c0-2.76 2.24-5 5-5h150c2.76 0 5 2.24 5 5v110c0 2.76-2.24 5-5 5h-150c-2.76 0-5-2.24-5-5z" fill="#fff"/><path d="M1134.62 778h3.84m7.7 0h3.84m7.7 0h3.84m7.7 0h3.84m7.7 0h3.84m7.7 0h3.83m7.7 0h3.84m7.68 0h3.85m7.7 0h3.84m7.7 0h3.84m7.7 0h3.85m7.7 0h3.83m7.7 0h1.92l2.95.96 1.8 2.46.25 1.58v2.04m0 8.15v4.06m0 8.15v4.08m0 8.15v4.07m0 8.15v4.08m0 8.14v4.08m0 8.15v4.07m0 8.15v4.07m0 8.14v4.07m0 8.16V893l-.96 2.95-2.46 1.8-1.58.25h-1.92m-7.7 0h-3.84m-7.7 0H1250m-7.7 0h-3.84m-7.7 0h-3.84m-7.7 0h-3.84m-7.7 0h-3.83m-7.7 0h-3.84m-7.68 0h-3.85m-7.7 0h-3.84m-7.7 0h-3.84m-7.7 0h-3.85m-7.7 0h-3.83m-7.7 0H1125l-2.95-.96-1.8-2.46-.25-1.58v-2.04m0-8.15v-4.06m0-8.15v-4.08m0-8.15v-4.07m0-8.15v-4.08m0-8.14v-4.08m0-8.15v-4.07m0-8.15v-4.07m0-8.14v-4.07m0-8.16V783l.96-2.95 2.46-1.8 1.58-.25h1.92" stroke="#000" stroke-width="2" fill="none"/><use xlink:href="#t" transform="matrix(1,0,0,1,1125,783) translate(21.074999999999996 58.6)"/><use xlink:href="#u" transform="matrix(1,0,0,1,1125,783) translate(88.975 58.6)"/><path d="M1039.53 735.67l-.86 1.8-1.76-.83.87-1.8zm-8.8-4.18l-.85 1.8-3.52-1.67.86-1.8zm-10.54-5.02l-.87 1.8-3.5-1.66.85-1.8zm-10.56-5l-.85 1.8-3.53-1.67.86-1.8zm-10.54-5.02l-.86 1.8-3.5-1.66.4-.87h2.42zm-52.73-25.04l-.86 1.8-3.5-1.67.85-1.8zm-10.55-5l-.86 1.8-3.5-1.68.85-1.8zm-10.55-5.02l-.85 1.8-3.52-1.66.86-1.8zm-10.54-5l-.86 1.8-3.5-1.67.84-1.8zm-10.55-5.02l-.86 1.8-3.5-1.66.85-1.8zm-10.54-5l-.86 1.8-3.52-1.67.86-1.8zm-10.55-5.02l-.87 1.8-1.76-.83.86-1.8z"/><path d="M1042.33 737h-3.47l.64-1.34zM880.5 662.34l-2.83-1.34h3.47z"/><use xlink:href="#v" transform="matrix(1,0,0,1,916.0391730253662,694.132357187049) translate(0 14.4)"/><path d="M560 604c0-2.76 2.24-5 5-5h150c2.76 0 5 2.24 5 5v110c0 2.76-2.24 5-5 5H565c-2.76 0-5-2.24-5-5z" fill="#fff"/><path d="M574.62 599h3.84m7.7 0H590m7.7 0h3.84m7.7 0h3.84m7.7 0h3.84m7.7 0h3.83m7.7 0h3.84m7.68 0h3.85m7.7 0h3.84m7.7 0h3.84m7.7 0h3.85m7.7 0h3.83m7.7 0H715l2.95.96 1.8 2.46.25 1.58v2.04m0 8.15v4.06m0 8.15v4.08m0 8.15v4.07m0 8.15v4.08m0 8.14v4.08m0 8.15v4.07m0 8.15v4.07m0 8.14v4.07m0 8.16V714l-.96 2.95-2.46 1.8-1.58.25h-1.92m-7.7 0h-3.84m-7.7 0H690m-7.7 0h-3.84m-7.7 0h-3.84m-7.7 0h-3.84m-7.7 0h-3.83m-7.7 0h-3.84m-7.68 0h-3.85m-7.7 0h-3.84m-7.7 0h-3.84m-7.7 0h-3.85m-7.7 0h-3.83m-7.7 0H565l-2.95-.96-1.8-2.46L560 714v-2.04m0-8.15v-4.06m0-8.15v-4.08m0-8.15v-4.07m0-8.15v-4.08m0-8.14v-4.08m0-8.15v-4.07m0-8.15v-4.07m0-8.14v-4.07m0-8.16V604l.96-2.95 2.46-1.8L565 599h1.92" stroke="#000" stroke-width="2" fill="none"/><use xlink:href="#w" transform="matrix(1,0,0,1,565,604) translate(40.55 58.6)"/><path d="M641 597h-2v-2.05h2zm0-10.23h-2v-4.1h2zm0-12.27h-2v-4.1h2zm0-12.27h-2v-4.1h2zm0-12.28h-2v-4.1h2zm0-12.27h-2v-4.1h2zm0-36.82h-2v-4.1h2zm0-12.27h-2v-4.1h2zm0-12.28h-2v-4.1h2zm0-12.27h-2V462h2z"/><path d="M641 462.03h-2V461h2zM641 598h-2v-1.03h2z"/><use xlink:href="#p" transform="matrix(1,0,0,1,606,504.6487179487179) translate(0 14.4)"/><path d="M424.06 401H422v-2h2.06zm12.36 0h-4.12v-2h4.12zm86.55 0h-4.12v-2h4.12zm12.36 0h-4.12v-2h4.13zm12.37 0h-4.12v-2h4.12zm10.3 0h-2.06v-2H558z"/><path d="M422.03 401H421v-2h1.03zM559 401h-1.03v-2H559z"/><use xlink:href="#n" transform="matrix(1,0,0,1,437.5,389.2) translate(0 14.4)"/><path d="M660 705c0-2.76 2.24-5 5-5h150c2.76 0 5 2.24 5 5v110c0 2.76-2.24 5-5 5H665c-2.76 0-5-2.24-5-5z" fill="#fff"/><path d="M674.62 700h3.84m7.7 0H690m7.7 0h3.84m7.7 0h3.84m7.7 0h3.84m7.7 0h3.83m7.7 0h3.84m7.68 0h3.85m7.7 0h3.84m7.7 0h3.84m7.7 0h3.85m7.7 0h3.83m7.7 0H815l2.95.96 1.8 2.46.25 1.58v2.04m0 8.15v4.06m0 8.15v4.08m0 8.15v4.07m0 8.15v4.08m0 8.14v4.08m0 8.15v4.07m0 8.15v4.07m0 8.14v4.07m0 8.16V815l-.96 2.95-2.46 1.8-1.58.25h-1.92m-7.7 0h-3.84m-7.7 0H790m-7.7 0h-3.84m-7.7 0h-3.84m-7.7 0h-3.84m-7.7 0h-3.83m-7.7 0h-3.84m-7.68 0h-3.85m-7.7 0h-3.84m-7.7 0h-3.84m-7.7 0h-3.85m-7.7 0h-3.83m-7.7 0H665l-2.95-.96-1.8-2.46L660 815v-2.04m0-8.15v-4.06m0-8.15v-4.08m0-8.15v-4.07m0-8.15v-4.08m0-8.14v-4.08m0-8.15v-4.07m0-8.15v-4.07m0-8.14v-4.07m0-8.16V705l.96-2.95 2.46-1.8L665 700h1.92" stroke="#000" stroke-width="2" fill="none"/><use xlink:href="#x" transform="matrix(1,0,0,1,665,705) translate(41.525 58.6)"/><path d="M21 665c0-2.76 2.24-5 5-5h150c2.76 0 5 2.24 5 5v110c0 2.76-2.24 5-5 5H26c-2.76 0-5-2.24-5-5z" fill="#fff"/><path d="M35.62 660h3.84m7.7 0H51m7.7 0h3.84m7.7 0h3.84m7.7 0h3.84m7.7 0h3.83m7.7 0h3.84m7.68 0h3.85m7.7 0h3.84m7.7 0h3.84m7.7 0h3.85m7.7 0h3.83m7.7 0H176l2.95.96 1.8 2.46.25 1.58v2.04m0 8.15v4.06m0 8.15v4.08m0 8.15v4.07m0 8.15v4.08m0 8.14v4.08m0 8.15v4.07m0 8.15v4.07m0 8.14v4.07m0 8.16V775l-.96 2.95-2.46 1.8-1.58.25h-1.92m-7.7 0h-3.84m-7.7 0H151m-7.7 0h-3.84m-7.7 0h-3.84m-7.7 0h-3.84m-7.7 0h-3.83m-7.7 0H93.3m-7.68 0h-3.85m-7.7 0h-3.84m-7.7 0H58.7m-7.7 0h-3.85m-7.7 0h-3.83m-7.7 0H26l-2.95-.96-1.8-2.46L21 775v-2.04m0-8.15v-4.06m0-8.15v-4.08m0-8.15v-4.07m0-8.15v-4.08m0-8.14v-4.08m0-8.15v-4.07m0-8.15v-4.07m0-8.14v-4.07m0-8.16V665l.96-2.95 2.46-1.8L26 660h1.92" stroke="#000" stroke-width="2" fill="none"/><path d="M101 685c0-2.76 2.24-5 5-5h150c2.76 0 5 2.24 5 5v110c0 2.76-2.24 5-5 5H106c-2.76 0-5-2.24-5-5z" fill="#fff"/><path d="M115.62 680h3.84m7.7 0H131m7.7 0h3.84m7.7 0h3.84m7.7 0h3.84m7.7 0h3.83m7.7 0h3.84m7.68 0h3.85m7.7 0h3.84m7.7 0h3.84m7.7 0h3.85m7.7 0h3.83m7.7 0H256l2.95.96 1.8 2.46.25 1.58v2.04m0 8.15v4.06m0 8.15v4.08m0 8.15v4.07m0 8.15v4.08m0 8.14v4.08m0 8.15v4.07m0 8.15v4.07m0 8.14v4.07m0 8.16V795l-.96 2.95-2.46 1.8-1.58.25h-1.92m-7.7 0h-3.84m-7.7 0H231m-7.7 0h-3.84m-7.7 0h-3.84m-7.7 0h-3.84m-7.7 0h-3.83m-7.7 0h-3.84m-7.68 0h-3.85m-7.7 0h-3.84m-7.7 0h-3.84m-7.7 0h-3.85m-7.7 0h-3.83m-7.7 0H106l-2.95-.96-1.8-2.46L101 795v-2.04m0-8.15v-4.06m0-8.15v-4.08m0-8.15v-4.07m0-8.15v-4.08m0-8.14v-4.08m0-8.15v-4.07m0-8.15v-4.07m0-8.14v-4.07m0-8.16V685l.96-2.95 2.46-1.8L106 680h1.92" stroke="#000" stroke-width="2" fill="none"/><path d="M181 705c0-2.76 2.24-5 5-5h150c2.76 0 5 2.24 5 5v110c0 2.76-2.24 5-5 5H186c-2.76 0-5-2.24-5-5z" fill="#fff"/><path d="M195.62 700h3.84m7.7 0H211m7.7 0h3.84m7.7 0h3.84m7.7 0h3.84m7.7 0h3.83m7.7 0h3.84m7.68 0h3.85m7.7 0h3.84m7.7 0h3.84m7.7 0h3.85m7.7 0h3.83m7.7 0H336l2.95.96 1.8 2.46.25 1.58v2.04m0 8.15v4.06m0 8.15v4.08m0 8.15v4.07m0 8.15v4.08m0 8.14v4.08m0 8.15v4.07m0 8.15v4.07m0 8.14v4.07m0 8.16V815l-.96 2.95-2.46 1.8-1.58.25h-1.92m-7.7 0h-3.84m-7.7 0H311m-7.7 0h-3.84m-7.7 0h-3.84m-7.7 0h-3.84m-7.7 0h-3.83m-7.7 0h-3.84m-7.68 0h-3.85m-7.7 0h-3.84m-7.7 0h-3.84m-7.7 0h-3.85m-7.7 0h-3.83m-7.7 0H186l-2.95-.96-1.8-2.46L181 815v-2.04m0-8.15v-4.06m0-8.15v-4.08m0-8.15v-4.07m0-8.15v-4.08m0-8.14v-4.08m0-8.15v-4.07m0-8.15v-4.07m0-8.14v-4.07m0-8.16V705l.96-2.95 2.46-1.8L186 700h1.92" stroke="#000" stroke-width="2" fill="none"/><g><use xlink:href="#y" transform="matrix(1,0,0,1,186,705) translate(16.624999999999993 47.8)"/><use xlink:href="#z" transform="matrix(1,0,0,1,186,705) translate(66.475 47.8)"/><use xlink:href="#A" transform="matrix(1,0,0,1,186,705) translate(38.575 69.4)"/></g><path d="M184.1 678.37l-1.74 1-1-1.73 1.76-1zm10.5-6l-3.5 2-1-1.74 3.5-2zm10.48-6l-3.5 2-1-1.74 3.5-2zm10.48-6l-3.5 2-1-1.74 3.5-2zm7-4l-1-1.74.1-.06h4.02zm45.4-26l-3.5 2-.98-1.74 3.5-2zm10.5-6l-3.5 2-1-1.74 3.5-2zm10.47-6l-3.5 2-1-1.74 3.5-2zm10.48-6l-3.48 2-1-1.74 3.5-2zm10.5-6l-3.5 2-1-1.74 3.5-2zm8.73-5l-1.75 1-1-1.74 1.76-1z"/><path d="M182.18 679h-3.2l2.4-1.38zM319 601.15l-.4.23-1-1.74 1.4-.8z"/><g><use xlink:href="#B" transform="matrix(1,0,0,1,218.53648408147123,632.9725924461144) translate(0 14.4)"/></g><defs><path d="M212-179c-10-28-35-45-73-45-59 0-87 40-87 99 0 60 29 101 89 101 43 0 62-24 78-52l27 14C228-24 195 4 139 4 59 4 22-46 18-125c-6-104 99-153 187-111 19 9 31 26 39 46" id="C"/><path d="M141-36C126-15 110 5 73 4 37 3 15-17 15-53c-1-64 63-63 125-63 3-35-9-54-41-54-24 1-41 7-42 31l-33-3c5-37 33-52 76-52 45 0 72 20 72 64v82c-1 20 7 32 28 27v20c-31 9-61-2-59-35zM48-53c0 20 12 33 32 33 41-3 63-29 60-74-43 2-92-5-92 41" id="D"/><path d="M210-169c-67 3-38 105-44 169h-31v-121c0-29-5-50-35-48C34-165 62-65 56 0H25l-1-190h30c1 10-1 24 2 32 10-44 99-50 107 0 11-21 27-35 58-36 85-2 47 119 55 194h-31v-121c0-29-5-49-35-48" id="E"/><path d="M115-194c55 1 70 41 70 98S169 2 115 4C84 4 66-9 55-30l1 105H24l-1-265h31l2 30c10-21 28-34 59-34zm-8 174c40 0 45-34 45-75s-6-73-45-74c-42 0-51 32-51 76 0 43 10 73 51 73" id="F"/><path d="M84 4C-5 8 30-112 23-190h32v120c0 31 7 50 39 49 72-2 45-101 50-169h31l1 190h-30c-1-10 1-25-2-33-11 22-28 36-60 37" id="G"/><path d="M135-143c-3-34-86-38-87 0 15 53 115 12 119 90S17 21 10-45l28-5c4 36 97 45 98 0-10-56-113-15-118-90-4-57 82-63 122-42 12 7 21 19 24 35" id="H"/><g id="a"><use transform="matrix(0.05,0,0,0.05,0,0)" xlink:href="#C"/><use transform="matrix(0.05,0,0,0.05,12.950000000000001,0)" xlink:href="#D"/><use transform="matrix(0.05,0,0,0.05,22.950000000000003,0)" xlink:href="#E"/><use transform="matrix(0.05,0,0,0.05,37.900000000000006,0)" xlink:href="#F"/><use transform="matrix(0.05,0,0,0.05,47.900000000000006,0)" xlink:href="#G"/><use transform="matrix(0.05,0,0,0.05,57.900000000000006,0)" xlink:href="#H"/></g><path d="M100-194c62-1 85 37 85 99 1 63-27 99-86 99S16-35 15-95c0-66 28-99 85-99zM99-20c44 1 53-31 53-75 0-43-8-75-51-75s-53 32-53 75 10 74 51 75" id="I"/><path d="M114-163C36-179 61-72 57 0H25l-1-190h30c1 12-1 29 2 39 6-27 23-49 58-41v29" id="J"/><path d="M100-194c63 0 86 42 84 106H49c0 40 14 67 53 68 26 1 43-12 49-29l28 8c-11 28-37 45-77 45C44 4 14-33 15-96c1-61 26-98 85-98zm52 81c6-60-76-77-97-28-3 7-6 17-6 28h103" id="K"/><g id="b"><use transform="matrix(0.05,0,0,0.05,0,0)" xlink:href="#C"/><use transform="matrix(0.05,0,0,0.05,12.950000000000001,0)" xlink:href="#I"/><use transform="matrix(0.05,0,0,0.05,22.950000000000003,0)" xlink:href="#J"/><use transform="matrix(0.05,0,0,0.05,28.900000000000002,0)" xlink:href="#K"/></g><path d="M33 0v-248h34V0H33" id="L"/><path d="M117-194c89-4 53 116 60 194h-32v-121c0-31-8-49-39-48C34-167 62-67 57 0H25l-1-190h30c1 10-1 24 2 32 11-22 29-35 61-36" id="M"/><path d="M59-47c-2 24 18 29 38 22v24C64 9 27 4 27-40v-127H5v-23h24l9-43h21v43h35v23H59v120" id="N"/><path d="M0 4l72-265h28L28 4H0" id="O"/><path d="M30 0v-248h187v28H63v79h144v27H63v87h162V0H30" id="P"/><path d="M190 0L58-211 59 0H30v-248h39L202-35l-2-213h31V0h-41" id="Q"/><g id="c"><use transform="matrix(0.05,0,0,0.05,0,0)" xlink:href="#L"/><use transform="matrix(0.05,0,0,0.05,5,0)" xlink:href="#M"/><use transform="matrix(0.05,0,0,0.05,15,0)" xlink:href="#N"/><use transform="matrix(0.05,0,0,0.05,20,0)" xlink:href="#K"/><use transform="matrix(0.05,0,0,0.05,30,0)" xlink:href="#J"/><use transform="matrix(0.05,0,0,0.05,35.95,0)" xlink:href="#M"/><use transform="matrix(0.05,0,0,0.05,45.95,0)" xlink:href="#K"/><use transform="matrix(0.05,0,0,0.05,55.95,0)" xlink:href="#N"/><use transform="matrix(0.05,0,0,0.05,60.95,0)" xlink:href="#O"/><use transform="matrix(0.05,0,0,0.05,65.95,0)" xlink:href="#C"/><use transform="matrix(0.05,0,0,0.05,78.9,0)" xlink:href="#P"/><use transform="matrix(0.05,0,0,0.05,90.9,0)" xlink:href="#Q"/><use transform="matrix(0.05,0,0,0.05,103.85000000000001,0)" xlink:href="#L"/><use transform="matrix(0.05,0,0,0.05,108.85000000000001,0)" xlink:href="#C"/></g><path d="M27 0v-27h64v-190l-56 39v-29l58-41h29v221h61V0H27" id="R"/><path d="M101-251c68 0 85 55 85 127S166 4 100 4C33 4 14-52 14-124c0-73 17-127 87-127zm-1 229c47 0 54-49 54-102s-4-102-53-102c-51 0-55 48-55 102 0 53 5 102 54 102" id="S"/><path d="M143 4C61 4 22-44 18-125c-5-107 100-154 193-111 17 8 29 25 37 43l-32 9c-13-25-37-40-76-40-61 0-88 39-88 99 0 61 29 100 91 101 35 0 62-11 79-27v-45h-74v-28h105v86C228-13 192 4 143 4" id="T"/><path d="M115-194c53 0 69 39 70 98 0 66-23 100-70 100C84 3 66-7 56-30L54 0H23l1-261h32v101c10-23 28-34 59-34zm-8 174c40 0 45-34 45-75 0-40-5-75-45-74-42 0-51 32-51 76 0 43 10 73 51 73" id="U"/><path d="M68-38c1 34 0 65-14 84H32c9-13 17-26 17-46H33v-38h35" id="V"/><g id="d"><use transform="matrix(0.05,0,0,0.05,0,0)" xlink:href="#R"/><use transform="matrix(0.05,0,0,0.05,10,0)" xlink:href="#S"/><use transform="matrix(0.05,0,0,0.05,20,0)" xlink:href="#S"/><use transform="matrix(0.05,0,0,0.05,30,0)" xlink:href="#T"/><use transform="matrix(0.05,0,0,0.05,44,0)" xlink:href="#U"/><use transform="matrix(0.05,0,0,0.05,54,0)" xlink:href="#O"/><use transform="matrix(0.05,0,0,0.05,59,0)" xlink:href="#H"/><use transform="matrix(0.05,0,0,0.05,68,0)" xlink:href="#V"/></g><path d="M141 0L90-78 38 0H4l68-98-65-92h35l48 74 47-74h35l-64 92 68 98h-35" id="W"/><g id="e"><use transform="matrix(0.05,0,0,0.05,0,0)" xlink:href="#M"/><use transform="matrix(0.05,0,0,0.05,10,0)" xlink:href="#W"/></g><g id="f"><use transform="matrix(0.05,0,0,0.05,0,0)" xlink:href="#R"/><use transform="matrix(0.05,0,0,0.05,10,0)" xlink:href="#S"/><use transform="matrix(0.05,0,0,0.05,20,0)" xlink:href="#T"/><use transform="matrix(0.05,0,0,0.05,34,0)" xlink:href="#U"/><use transform="matrix(0.05,0,0,0.05,44,0)" xlink:href="#O"/><use transform="matrix(0.05,0,0,0.05,49,0)" xlink:href="#H"/></g><path d="M266 0h-40l-56-210L115 0H75L2-248h35L96-30l15-64 43-154h32l59 218 59-218h35" id="X"/><path d="M24-231v-30h32v30H24zM24 0v-190h32V0H24" id="Y"/><path d="M16-82v-28h88v28H16" id="Z"/><path d="M63-220v92h138v28H63V0H30v-248h175v28H63" id="aa"/><g id="g"><use transform="matrix(0.05,0,0,0.05,0,0)" xlink:href="#X"/><use transform="matrix(0.05,0,0,0.05,16.95,0)" xlink:href="#Y"/><use transform="matrix(0.05,0,0,0.05,20.9,0)" xlink:href="#Z"/><use transform="matrix(0.05,0,0,0.05,26.849999999999994,0)" xlink:href="#aa"/><use transform="matrix(0.05,0,0,0.05,37.8,0)" xlink:href="#Y"/></g><path d="M205 0l-28-72H64L36 0H1l101-248h38L239 0h-34zm-38-99l-47-123c-12 45-31 82-46 123h93" id="ab"/><path d="M177-190C167-65 218 103 67 71c-23-6-38-20-44-43l32-5c15 47 100 32 89-28v-30C133-14 115 1 83 1 29 1 15-40 15-95c0-56 16-97 71-98 29-1 48 16 59 35 1-10 0-23 2-32h30zM94-22c36 0 50-32 50-73 0-42-14-75-50-75-39 0-46 34-46 75s6 73 46 73" id="ac"/><g id="h"><use transform="matrix(0.05,0,0,0.05,0,0)" xlink:href="#ab"/><use transform="matrix(0.05,0,0,0.05,12,0)" xlink:href="#ac"/><use transform="matrix(0.05,0,0,0.05,22,0)" xlink:href="#ac"/><use transform="matrix(0.05,0,0,0.05,32,0)" xlink:href="#J"/><use transform="matrix(0.05,0,0,0.05,37.95,0)" xlink:href="#K"/><use transform="matrix(0.05,0,0,0.05,47.95,0)" xlink:href="#ac"/><use transform="matrix(0.05,0,0,0.05,57.95,0)" xlink:href="#D"/><use transform="matrix(0.05,0,0,0.05,67.95,0)" xlink:href="#N"/><use transform="matrix(0.05,0,0,0.05,72.95,0)" xlink:href="#Y"/><use transform="matrix(0.05,0,0,0.05,76.9,0)" xlink:href="#I"/><use transform="matrix(0.05,0,0,0.05,86.9,0)" xlink:href="#M"/></g><path d="M30 0v-248h33v221h125V0H30" id="ad"/><path d="M179-190L93 31C79 59 56 82 12 73V49c39 6 53-20 64-50L1-190h34L92-34l54-156h33" id="ae"/><g id="i"><use transform="matrix(0.05,0,0,0.05,0,0)" xlink:href="#ad"/><use transform="matrix(0.05,0,0,0.05,10,0)" xlink:href="#D"/><use transform="matrix(0.05,0,0,0.05,20,0)" xlink:href="#ae"/><use transform="matrix(0.05,0,0,0.05,29,0)" xlink:href="#K"/><use transform="matrix(0.05,0,0,0.05,39,0)" xlink:href="#J"/></g><path d="M240 0l2-218c-23 76-54 145-80 218h-23L58-218 59 0H30v-248h44l77 211c21-75 51-140 76-211h43V0h-30" id="af"/><g id="j"><use transform="matrix(0.05,0,0,0.05,0,0)" xlink:href="#af"/><use transform="matrix(0.05,0,0,0.05,14.950000000000001,0)" xlink:href="#K"/><use transform="matrix(0.05,0,0,0.05,24.950000000000003,0)" xlink:href="#N"/><use transform="matrix(0.05,0,0,0.05,29.950000000000003,0)" xlink:href="#J"/><use transform="matrix(0.05,0,0,0.05,35.900000000000006,0)" xlink:href="#I"/></g><path d="M106-169C34-169 62-67 57 0H25v-261h32l-1 103c12-21 28-36 61-36 89 0 53 116 60 194h-32v-121c2-32-8-49-39-48" id="ag"/><g id="k"><use transform="matrix(0.05,0,0,0.05,0,0)" xlink:href="#P"/><use transform="matrix(0.05,0,0,0.05,12,0)" xlink:href="#N"/><use transform="matrix(0.05,0,0,0.05,17,0)" xlink:href="#ag"/><use transform="matrix(0.05,0,0,0.05,27,0)" xlink:href="#K"/><use transform="matrix(0.05,0,0,0.05,37,0)" xlink:href="#J"/><use transform="matrix(0.05,0,0,0.05,42.95,0)" xlink:href="#M"/><use transform="matrix(0.05,0,0,0.05,52.95,0)" xlink:href="#K"/><use transform="matrix(0.05,0,0,0.05,62.95,0)" xlink:href="#N"/></g><path d="M30-248c118-7 216 8 213 122C240-48 200 0 122 0H30v-248zM63-27c89 8 146-16 146-99s-60-101-146-95v194" id="ah"/><g id="l"><use transform="matrix(0.05,0,0,0.05,0,0)" xlink:href="#ah"/><use transform="matrix(0.05,0,0,0.05,12.950000000000001,0)" xlink:href="#D"/><use transform="matrix(0.05,0,0,0.05,22.950000000000003,0)" xlink:href="#N"/><use transform="matrix(0.05,0,0,0.05,27.950000000000003,0)" xlink:href="#D"/></g><g id="m"><use transform="matrix(0.05,0,0,0.05,0,0)" xlink:href="#C"/><use transform="matrix(0.05,0,0,0.05,12.950000000000001,0)" xlink:href="#K"/><use transform="matrix(0.05,0,0,0.05,22.950000000000003,0)" xlink:href="#M"/><use transform="matrix(0.05,0,0,0.05,32.95,0)" xlink:href="#N"/><use transform="matrix(0.05,0,0,0.05,37.95,0)" xlink:href="#K"/><use transform="matrix(0.05,0,0,0.05,47.95,0)" xlink:href="#J"/></g><g id="n"><use transform="matrix(0.05,0,0,0.05,0,0)" xlink:href="#M"/><use transform="matrix(0.05,0,0,0.05,10,0)" xlink:href="#W"/><use transform="matrix(0.05,0,0,0.05,19,0)" xlink:href="#R"/><use transform="matrix(0.05,0,0,0.05,29,0)" xlink:href="#S"/><use transform="matrix(0.05,0,0,0.05,39,0)" xlink:href="#T"/><use transform="matrix(0.05,0,0,0.05,53,0)" xlink:href="#U"/><use transform="matrix(0.05,0,0,0.05,63,0)" xlink:href="#O"/><use transform="matrix(0.05,0,0,0.05,68,0)" xlink:href="#H"/></g><path d="M101-251c82-7 93 87 43 132L82-64C71-53 59-42 53-27h129V0H18c2-99 128-94 128-182 0-28-16-43-45-43s-46 15-49 41l-32-3c6-41 34-60 81-64" id="ai"/><g id="o"><use transform="matrix(0.05,0,0,0.05,0,0)" xlink:href="#ai"/><use transform="matrix(0.05,0,0,0.05,10,0)" xlink:href="#W"/><use transform="matrix(0.05,0,0,0.05,19,0)" xlink:href="#R"/><use transform="matrix(0.05,0,0,0.05,29,0)" xlink:href="#S"/><use transform="matrix(0.05,0,0,0.05,39,0)" xlink:href="#T"/><use transform="matrix(0.05,0,0,0.05,53,0)" xlink:href="#U"/><use transform="matrix(0.05,0,0,0.05,63,0)" xlink:href="#O"/><use transform="matrix(0.05,0,0,0.05,68,0)" xlink:href="#H"/></g><path d="M110-160c48 1 74 30 74 79 0 53-28 85-80 85-65 0-83-55-86-122-5-90 50-162 133-122 14 7 22 21 27 39l-31 6c-5-40-67-38-82-6-9 19-15 44-15 74 11-20 30-34 60-33zm-7 138c34 0 49-23 49-58s-16-56-50-56c-29 0-50 16-49 49 1 36 15 65 50 65" id="aj"/><g id="p"><use transform="matrix(0.05,0,0,0.05,0,0)" xlink:href="#R"/><use transform="matrix(0.05,0,0,0.05,10,0)" xlink:href="#aj"/><use transform="matrix(0.05,0,0,0.05,20,0)" xlink:href="#S"/><use transform="matrix(0.05,0,0,0.05,30,0)" xlink:href="#T"/><use transform="matrix(0.05,0,0,0.05,44,0)" xlink:href="#U"/><use transform="matrix(0.05,0,0,0.05,54,0)" xlink:href="#O"/><use transform="matrix(0.05,0,0,0.05,59,0)" xlink:href="#H"/></g><path d="M160-131c35 5 61 23 61 61C221 17 115-2 30 0v-248c76 3 177-17 177 60 0 33-19 50-47 57zm-97-11c50-1 110 9 110-42 0-47-63-36-110-37v79zm0 115c55-2 124 14 124-45 0-56-70-42-124-44v89" id="ak"/><path d="M24 0v-261h32V0H24" id="al"/><path d="M85-194c31 0 48 13 60 33l-1-100h32l1 261h-30c-2-10 0-23-3-31C134-8 116 4 85 4 32 4 16-35 15-94c0-66 23-100 70-100zm9 24c-40 0-46 34-46 75 0 40 6 74 45 74 42 0 51-32 51-76 0-42-9-74-50-73" id="am"/><g id="q"><use transform="matrix(0.05,0,0,0.05,0,0)" xlink:href="#ak"/><use transform="matrix(0.05,0,0,0.05,12,0)" xlink:href="#G"/><use transform="matrix(0.05,0,0,0.05,22,0)" xlink:href="#Y"/><use transform="matrix(0.05,0,0,0.05,25.950000000000003,0)" xlink:href="#al"/><use transform="matrix(0.05,0,0,0.05,29.899999999999995,0)" xlink:href="#am"/><use transform="matrix(0.05,0,0,0.05,39.9,0)" xlink:href="#Y"/><use transform="matrix(0.05,0,0,0.05,43.85,0)" xlink:href="#M"/><use transform="matrix(0.05,0,0,0.05,53.85,0)" xlink:href="#ac"/><use transform="matrix(0.05,0,0,0.05,63.85,0)" xlink:href="#H"/></g><g id="r"><use transform="matrix(0.05,0,0,0.05,0,0)" xlink:href="#D"/><use transform="matrix(0.05,0,0,0.05,10,0)" xlink:href="#M"/><use transform="matrix(0.05,0,0,0.05,20,0)" xlink:href="#am"/></g><path d="M233-177c-1 41-23 64-60 70L243 0h-38l-65-103H63V0H30v-248c88 3 205-21 203 71zM63-129c60-2 137 13 137-47 0-61-80-42-137-45v92" id="an"/><path d="M197 0v-115H63V0H30v-248h33v105h134v-105h34V0h-34" id="ao"/><g id="s"><use transform="matrix(0.05,0,0,0.05,0,0)" xlink:href="#an"/><use transform="matrix(0.05,0,0,0.05,12.950000000000001,0)" xlink:href="#K"/><use transform="matrix(0.05,0,0,0.05,22.950000000000003,0)" xlink:href="#H"/><use transform="matrix(0.05,0,0,0.05,31.950000000000003,0)" xlink:href="#ao"/><use transform="matrix(0.05,0,0,0.05,44.900000000000006,0)" xlink:href="#D"/><use transform="matrix(0.05,0,0,0.05,54.900000000000006,0)" xlink:href="#al"/><use transform="matrix(0.05,0,0,0.05,58.85,0)" xlink:href="#al"/><use transform="matrix(0.05,0,0,0.05,62.80000000000001,0)" xlink:href="#H"/></g><g id="t"><use transform="matrix(0.05,0,0,0.05,0,0)" xlink:href="#an"/><use transform="matrix(0.05,0,0,0.05,12.950000000000001,0)" xlink:href="#K"/><use transform="matrix(0.05,0,0,0.05,22.950000000000003,0)" xlink:href="#E"/><use transform="matrix(0.05,0,0,0.05,37.900000000000006,0)" xlink:href="#I"/><use transform="matrix(0.05,0,0,0.05,47.900000000000006,0)" xlink:href="#N"/><use transform="matrix(0.05,0,0,0.05,52.900000000000006,0)" xlink:href="#K"/></g><path d="M185-189c-5-48-123-54-124 2 14 75 158 14 163 119 3 78-121 87-175 55-17-10-28-26-33-46l33-7c5 56 141 63 141-1 0-78-155-14-162-118-5-82 145-84 179-34 5 7 8 16 11 25" id="ap"/><g id="u"><use transform="matrix(0.05,0,0,0.05,0,0)" xlink:href="#ap"/><use transform="matrix(0.05,0,0,0.05,12,0)" xlink:href="#Y"/><use transform="matrix(0.05,0,0,0.05,15.949999999999998,0)" xlink:href="#N"/><use transform="matrix(0.05,0,0,0.05,20.95,0)" xlink:href="#K"/><use transform="matrix(0.05,0,0,0.05,30.950000000000003,0)" xlink:href="#H"/></g><g id="v"><use transform="matrix(0.05,0,0,0.05,0,0)" xlink:href="#R"/><use transform="matrix(0.05,0,0,0.05,10,0)" xlink:href="#S"/><use transform="matrix(0.05,0,0,0.05,20,0)" xlink:href="#af"/><use transform="matrix(0.05,0,0,0.05,34.95,0)" xlink:href="#U"/><use transform="matrix(0.05,0,0,0.05,44.95,0)" xlink:href="#O"/><use transform="matrix(0.05,0,0,0.05,49.95,0)" xlink:href="#H"/><use transform="matrix(0.05,0,0,0.05,58.95,0)" xlink:href="#Z"/><use transform="matrix(0.05,0,0,0.05,64.9,0)" xlink:href="#R"/><use transform="matrix(0.05,0,0,0.05,74.9,0)" xlink:href="#T"/><use transform="matrix(0.05,0,0,0.05,88.9,0)" xlink:href="#U"/><use transform="matrix(0.05,0,0,0.05,98.9,0)" xlink:href="#O"/><use transform="matrix(0.05,0,0,0.05,103.9,0)" xlink:href="#H"/></g><path d="M108 0H70L1-190h34L89-25l56-165h34" id="aq"/><path d="M96-169c-40 0-48 33-48 73s9 75 48 75c24 0 41-14 43-38l32 2c-6 37-31 61-74 61-59 0-76-41-82-99-10-93 101-131 147-64 4 7 5 14 7 22l-32 3c-4-21-16-35-41-35" id="ar"/><g id="w"><use transform="matrix(0.05,0,0,0.05,0,0)" xlink:href="#ap"/><use transform="matrix(0.05,0,0,0.05,12,0)" xlink:href="#K"/><use transform="matrix(0.05,0,0,0.05,22,0)" xlink:href="#J"/><use transform="matrix(0.05,0,0,0.05,27.950000000000003,0)" xlink:href="#aq"/><use transform="matrix(0.05,0,0,0.05,36.95,0)" xlink:href="#Y"/><use transform="matrix(0.05,0,0,0.05,40.900000000000006,0)" xlink:href="#ar"/><use transform="matrix(0.05,0,0,0.05,49.900000000000006,0)" xlink:href="#K"/><use transform="matrix(0.05,0,0,0.05,59.900000000000006,0)" xlink:href="#H"/></g><g id="x"><use transform="matrix(0.05,0,0,0.05,0,0)" xlink:href="#U"/><use transform="matrix(0.05,0,0,0.05,10,0)" xlink:href="#ap"/><use transform="matrix(0.05,0,0,0.05,22,0)" xlink:href="#K"/><use transform="matrix(0.05,0,0,0.05,32,0)" xlink:href="#ar"/><use transform="matrix(0.05,0,0,0.05,41,0)" xlink:href="#G"/><use transform="matrix(0.05,0,0,0.05,51,0)" xlink:href="#J"/><use transform="matrix(0.05,0,0,0.05,56.95,0)" xlink:href="#K"/></g><g id="y"><use transform="matrix(0.05,0,0,0.05,0,0)" xlink:href="#ap"/><use transform="matrix(0.05,0,0,0.05,12,0)" xlink:href="#E"/><use transform="matrix(0.05,0,0,0.05,26.950000000000003,0)" xlink:href="#D"/><use transform="matrix(0.05,0,0,0.05,36.95,0)" xlink:href="#al"/><use transform="matrix(0.05,0,0,0.05,40.900000000000006,0)" xlink:href="#al"/></g><g id="z"><use transform="matrix(0.05,0,0,0.05,0,0)" xlink:href="#C"/><use transform="matrix(0.05,0,0,0.05,12.950000000000001,0)" xlink:href="#D"/><use transform="matrix(0.05,0,0,0.05,22.950000000000003,0)" xlink:href="#E"/><use transform="matrix(0.05,0,0,0.05,37.900000000000006,0)" xlink:href="#F"/><use transform="matrix(0.05,0,0,0.05,47.900000000000006,0)" xlink:href="#G"/><use transform="matrix(0.05,0,0,0.05,57.900000000000006,0)" xlink:href="#H"/></g><g id="A"><use transform="matrix(0.05,0,0,0.05,0,0)" xlink:href="#ak"/><use transform="matrix(0.05,0,0,0.05,12,0)" xlink:href="#G"/><use transform="matrix(0.05,0,0,0.05,22,0)" xlink:href="#Y"/><use transform="matrix(0.05,0,0,0.05,25.950000000000003,0)" xlink:href="#al"/><use transform="matrix(0.05,0,0,0.05,29.899999999999995,0)" xlink:href="#am"/><use transform="matrix(0.05,0,0,0.05,39.9,0)" xlink:href="#Y"/><use transform="matrix(0.05,0,0,0.05,43.85,0)" xlink:href="#M"/><use transform="matrix(0.05,0,0,0.05,53.85,0)" xlink:href="#ac"/><use transform="matrix(0.05,0,0,0.05,63.85,0)" xlink:href="#H"/></g><g id="B"><use transform="matrix(0.05,0,0,0.05,0,0)" xlink:href="#R"/><use transform="matrix(0.05,0,0,0.05,10,0)" xlink:href="#T"/><use transform="matrix(0.05,0,0,0.05,24,0)" xlink:href="#U"/><use transform="matrix(0.05,0,0,0.05,34,0)" xlink:href="#O"/><use transform="matrix(0.05,0,0,0.05,39,0)" xlink:href="#H"/></g></defs></g></svg>